{"glyphs":{"0":{"ha":690,"x_min":75,"x_max":618,"o":"m 490 669 q 443 732 456 732 q 438 726 439 732 q 434 709 438 724 q 425 664 431 694 q 415 613 419 633 q 353 319 392 488 q 311 125 311 136 q 329 121 311 121 q 479 221 418 121 q 542 463 540 321 q 490 669 542 579 m 371 783 q 343 789 360 789 q 261 774 303 789 q 209 735 226 761 q 164 629 192 710 q 136 465 139 557 q 135 441 136 457 q 135 418 135 425 q 174 238 135 317 q 217 175 189 206 q 257 144 244 144 q 265 163 265 144 q 299 367 265 179 q 357 667 333 554 q 375 771 375 749 q 371 783 375 781 m 274 839 q 329 849 293 849 q 431 825 386 849 q 527 742 479 800 q 597 622 575 683 q 618 472 618 565 q 604 342 618 396 q 503 128 571 201 q 338 56 435 56 q 179 126 246 57 q 75 421 75 233 l 75 447 q 138 708 81 592 q 190 791 160 754 q 235 828 219 828 q 274 839 246 828 z "},"1":{"ha":611,"x_min":79,"x_max":532,"o":"m 290 963 q 325 986 308 986 l 333 986 l 358 985 l 357 785 q 328 215 351 336 q 326 204 326 211 q 335 199 326 199 q 407 210 343 199 q 485 219 468 219 q 526 203 515 219 q 532 188 532 196 q 481 151 532 168 q 303 114 429 135 q 124 92 174 92 q 79 115 79 92 q 109 150 79 136 q 211 176 139 164 q 267 193 264 186 q 294 685 271 206 q 299 808 299 761 q 297 833 299 832 q 275 822 293 838 q 239 799 247 799 q 224 804 235 799 q 210 822 210 811 q 239 881 210 835 q 269 932 269 929 q 290 963 269 936 z "},"2":{"ha":703,"x_min":79,"x_max":624,"o":"m 303 997 q 376 1011 340 1011 q 489 956 446 1011 q 515 864 515 924 q 500 758 515 822 q 439 593 478 671 q 315 389 400 515 q 208 221 208 232 q 231 217 208 213 q 469 236 325 236 q 596 225 565 236 q 624 203 624 214 q 621 190 624 190 l 608 189 q 569 185 594 188 q 519 182 543 183 q 186 125 311 165 q 106 107 128 107 q 79 126 79 107 q 140 242 79 156 q 267 421 196 322 q 378 606 339 524 q 440 785 417 688 q 453 863 453 839 q 431 915 453 889 q 385 940 408 940 q 328 924 365 940 q 225 829 271 897 q 193 804 206 804 q 172 840 172 804 q 189 899 172 871 q 303 997 231 971 z "},"3":{"ha":654,"x_min":76,"x_max":581,"o":"m 233 940 q 310 999 264 975 q 406 1024 356 1024 q 493 1000 451 1024 q 561 857 561 960 q 542 768 561 810 q 469 661 522 726 q 419 594 419 599 q 453 572 419 593 q 540 487 506 540 q 579 375 575 433 q 581 349 581 365 q 561 282 581 321 q 413 151 513 183 q 325 138 371 138 q 96 289 176 138 q 76 343 76 325 q 106 367 76 367 q 138 354 121 367 q 193 303 154 342 q 269 237 240 253 q 339 221 299 221 q 456 269 403 221 q 508 371 508 317 q 506 393 508 379 q 473 460 499 422 q 426 514 447 499 q 385 526 408 526 q 351 525 365 526 q 314 522 318 522 q 293 535 297 522 q 292 544 292 538 q 354 639 292 568 q 461 776 433 729 q 489 867 489 824 q 485 903 489 893 q 463 932 481 914 q 404 958 436 958 q 256 872 336 958 q 196 822 210 822 l 194 822 q 182 843 182 826 q 233 940 182 878 z "},"4":{"ha":638,"x_min":76,"x_max":560,"o":"m 368 958 q 392 974 375 974 q 414 958 408 974 q 419 890 419 942 q 417 776 419 874 q 410 606 410 624 q 413 578 410 586 q 417 569 415 569 q 429 568 419 569 q 517 547 475 563 q 560 517 560 531 q 500 497 560 497 q 484 498 496 497 q 465 499 472 499 l 403 501 l 397 467 q 392 318 392 428 q 383 189 389 200 q 353 175 375 175 q 322 189 331 175 q 314 354 314 208 l 314 503 l 211 503 l 167 503 q 93 515 107 503 q 76 553 76 529 q 99 617 76 568 q 131 674 121 667 q 163 735 138 679 q 219 931 196 807 q 228 956 224 950 q 246 961 233 961 q 274 935 265 961 q 279 896 279 919 q 249 763 279 840 q 171 619 219 686 q 146 579 146 585 q 236 574 146 574 l 326 574 l 336 699 q 368 958 353 931 z "},"5":{"ha":694,"x_min":75,"x_max":619,"o":"m 401 969 q 471 981 446 981 q 513 954 513 981 q 339 878 513 901 q 225 864 275 868 l 194 861 l 185 781 q 175 668 175 676 l 175 635 l 208 640 q 343 647 239 647 q 490 629 446 646 q 603 525 565 599 q 619 468 619 493 q 618 443 619 453 q 566 322 611 381 q 450 229 521 264 q 228 175 342 175 q 168 182 196 175 q 103 227 132 192 q 75 297 75 263 q 100 328 75 328 q 164 297 125 328 q 222 275 193 275 q 267 276 247 275 q 456 331 379 282 q 540 449 532 379 q 542 469 542 457 q 522 517 542 488 q 464 565 497 551 q 363 581 431 578 q 346 581 357 581 q 331 582 335 582 q 225 569 278 582 q 149 557 169 557 l 144 557 q 92 657 92 560 q 104 782 92 706 q 132 901 119 878 q 169 933 143 924 q 275 951 194 942 q 401 969 360 961 z "},"6":{"ha":611,"x_min":75,"x_max":536,"o":"m 428 506 q 381 528 406 528 q 311 497 351 528 q 251 444 275 472 q 200 374 226 415 q 174 325 174 333 q 194 297 174 313 q 239 278 215 282 q 244 277 240 278 q 250 276 247 276 q 306 286 274 276 q 388 342 346 299 q 449 456 449 406 q 428 506 449 485 m 311 910 q 339 918 329 918 q 365 906 349 918 q 378 890 378 896 q 377 887 378 889 q 374 883 376 885 q 370 878 372 881 q 363 873 368 876 q 354 866 358 869 q 343 857 350 863 q 331 847 336 851 q 263 759 311 832 q 196 642 215 686 q 167 551 183 613 q 150 472 150 490 q 153 468 150 468 q 203 507 163 468 q 385 604 304 604 q 494 564 450 604 q 536 463 536 526 q 490 326 536 396 q 368 217 443 257 q 265 194 324 194 q 172 215 207 194 q 75 419 75 272 q 121 635 75 518 q 215 806 153 715 q 311 910 276 896 z "},"7":{"ha":626,"x_min":75,"x_max":549,"o":"m 324 976 q 451 1003 421 999 l 456 1003 q 486 974 486 1003 q 444 839 486 939 q 361 607 361 632 q 364 606 361 606 q 432 613 379 606 q 488 617 465 617 q 549 583 544 617 l 549 575 q 520 539 549 551 q 418 521 492 526 q 335 506 340 514 q 306 281 315 472 q 297 190 301 213 q 282 157 293 168 q 263 144 269 144 q 244 151 258 144 q 218 194 224 164 q 215 233 215 208 q 235 463 215 382 q 239 496 242 493 l 236 496 q 182 489 224 496 q 125 485 153 485 q 106 486 110 485 q 75 517 75 493 q 81 531 75 522 q 233 582 93 546 q 263 596 257 588 q 282 646 269 604 q 336 799 293 688 q 372 899 372 892 q 369 901 372 901 q 290 888 367 901 q 168 874 214 874 q 104 885 125 874 q 75 929 75 899 q 81 944 75 939 q 153 951 88 951 l 163 951 q 324 976 215 951 z "},"8":{"ha":672,"x_min":75,"x_max":599,"o":"m 461 593 q 426 604 436 604 q 375 582 411 604 q 289 550 339 561 q 243 537 257 544 q 210 507 229 529 q 162 423 181 474 q 143 329 143 372 q 154 275 143 297 q 256 224 181 224 l 275 224 q 428 282 364 229 q 514 419 492 335 q 521 474 521 450 q 461 593 521 563 m 393 881 q 349 896 367 896 q 278 865 318 896 q 179 732 207 814 q 175 701 175 717 q 207 631 175 651 q 247 619 225 619 q 342 649 290 619 q 426 722 394 678 q 449 788 449 753 q 393 881 449 846 m 286 932 q 364 949 328 949 q 463 908 418 949 q 515 789 508 867 q 517 767 517 781 q 499 706 517 742 q 481 658 481 669 q 489 651 481 651 q 534 620 503 651 q 578 561 565 589 q 599 461 599 511 q 501 246 599 339 q 267 153 403 153 l 246 153 q 129 194 174 157 q 76 297 85 232 q 75 317 75 303 q 98 424 75 364 q 157 528 121 483 l 179 557 l 156 579 q 111 692 111 622 q 161 835 111 767 q 286 932 207 899 z "},"9":{"ha":572,"x_min":78,"x_max":496,"o":"m 361 888 q 311 894 333 894 q 208 867 267 894 q 144 785 144 832 q 164 736 144 760 q 224 708 188 708 q 271 715 249 708 q 363 781 311 726 q 408 842 408 831 q 403 858 408 844 q 361 888 392 879 m 269 965 q 319 969 294 969 q 453 917 422 969 q 483 874 475 883 q 496 844 496 858 q 451 604 496 822 q 363 211 389 304 q 315 115 338 118 l 310 115 q 288 154 288 115 q 294 219 288 174 q 344 449 303 267 q 399 682 385 631 q 406 714 406 707 q 401 719 406 719 q 371 697 397 719 q 236 644 310 644 q 133 678 176 644 q 79 771 89 713 q 78 788 78 776 q 133 902 78 850 q 269 965 188 954 z "},"\u0000":{"ha":347,"x_min":0,"x_max":0,"o":""},"\r":{"ha":347,"x_min":0,"x_max":0,"o":""}," ":{"ha":347,"x_min":0,"x_max":0,"o":""},"!":{"ha":394,"x_min":75,"x_max":315,"o":"m 101 982 q 124 988 108 988 q 151 981 140 988 q 176 938 167 972 q 194 819 185 904 q 257 318 204 724 l 269 219 l 249 201 q 213 183 226 183 q 185 194 200 183 q 160 237 169 206 q 125 393 150 268 q 75 843 75 643 q 81 943 75 915 q 101 982 86 971 m 196 38 q 239 60 218 60 q 274 49 251 60 q 315 -19 315 28 q 294 -68 315 -50 q 247 -86 272 -86 q 201 -68 221 -86 q 176 -19 181 -50 q 175 -1 175 -12 q 196 38 175 17 z "},"+":{"ha":749,"x_min":75,"x_max":676,"o":"m 268 624 q 276 657 268 649 q 301 665 285 665 q 328 656 319 665 q 353 556 335 646 l 371 465 l 510 468 q 590 469 543 469 q 664 457 651 469 q 669 431 676 444 q 631 410 661 417 q 504 393 601 404 q 390 375 390 381 q 401 268 390 353 q 410 175 410 203 q 404 145 410 153 q 385 138 399 138 l 375 138 q 314 279 336 142 l 300 363 l 197 367 q 85 376 92 372 q 75 406 75 383 q 80 425 75 419 q 104 435 85 431 q 200 449 139 444 q 275 460 267 454 q 282 479 282 464 q 276 535 282 482 q 268 624 268 600 z "},",":{"ha":292,"x_min":76,"x_max":217,"o":"m 106 152 q 121 191 106 152 q 151 244 136 229 q 169 260 167 260 q 208 225 192 260 q 217 199 217 208 q 206 156 217 192 q 136 18 163 25 q 126 17 133 17 q 94 28 111 17 q 76 53 76 39 q 106 152 76 75 z "},"-":{"ha":693,"x_min":74,"x_max":618,"o":"m 481 486 q 549 492 519 492 q 607 474 588 492 q 618 450 618 463 q 590 414 618 425 q 385 375 550 399 q 153 351 221 351 q 74 378 74 351 q 147 425 74 403 q 481 486 258 456 z "},".":{"ha":240,"x_min":69,"x_max":169,"o":"m 82 43 q 117 60 92 60 q 154 44 139 60 q 169 19 169 29 q 161 -4 169 11 q 114 -39 142 -39 q 83 -26 97 -39 q 69 7 69 -12 q 82 43 69 26 z "},":":{"ha":308,"x_min":75,"x_max":235,"o":"m 126 865 q 149 872 143 872 q 181 863 157 872 q 231 783 231 840 q 222 749 231 765 q 150 703 199 703 q 97 728 118 703 q 78 785 78 751 q 126 865 78 846 m 111 389 q 154 413 140 413 q 196 399 175 413 q 226 363 217 385 q 235 322 235 344 q 211 262 235 288 q 151 236 188 236 q 78 285 90 236 q 75 310 75 293 q 111 389 75 356 z "},";":{"ha":283,"x_min":75,"x_max":211,"o":"m 110 813 q 138 818 122 818 q 185 798 165 818 q 206 751 206 778 q 186 708 206 726 q 149 689 169 689 q 107 708 129 689 q 76 765 76 733 q 110 813 76 800 m 142 376 q 169 390 154 390 q 203 361 190 390 q 211 322 211 340 q 207 282 211 307 q 167 162 196 218 q 115 106 138 106 q 88 121 100 106 q 75 156 75 136 q 98 277 75 201 q 142 376 121 353 z "},"?":{"ha":546,"x_min":78,"x_max":468,"o":"m 225 922 q 307 940 265 940 q 416 903 369 940 q 468 807 463 867 l 468 790 q 452 715 468 753 q 392 607 436 676 q 294 358 306 478 q 287 306 290 315 q 269 297 283 297 q 231 399 231 297 q 248 510 231 460 q 315 643 265 561 q 392 800 392 769 q 372 842 392 818 q 342 861 353 861 q 328 860 333 861 q 176 743 232 840 q 111 688 144 688 q 106 688 110 688 q 101 689 103 689 q 82 699 86 692 q 78 733 78 707 q 120 839 78 785 q 225 922 163 893 m 214 64 q 250 78 228 78 q 296 58 276 78 q 315 15 315 39 q 296 -26 315 -7 q 251 -46 276 -46 q 201 -6 217 -46 q 196 21 196 14 q 214 64 196 42 z "},"@":{"ha":653,"x_min":75,"x_max":581,"o":"m 335 414 q 351 432 335 414 q 367 457 367 450 q 358 464 367 464 q 314 439 339 464 q 289 389 289 414 q 297 378 289 378 q 335 414 304 378 m 274 689 q 358 710 315 710 q 470 674 418 710 q 551 574 522 638 q 581 435 581 513 q 576 397 581 411 q 532 322 563 350 q 465 294 501 294 q 396 325 426 294 l 372 349 l 344 328 q 292 310 318 310 q 242 332 263 310 q 221 390 221 354 q 222 398 221 393 q 222 406 222 403 q 270 499 228 463 q 358 536 313 536 q 408 517 389 536 q 428 461 428 499 l 428 453 q 440 396 428 421 q 467 371 451 371 q 494 394 482 371 q 504 443 504 413 q 453 589 504 531 q 409 619 439 606 q 358 633 379 633 q 215 538 282 633 q 147 339 147 442 q 151 292 147 314 q 205 188 165 228 q 294 147 244 147 q 377 166 340 147 q 464 233 414 185 q 547 293 525 293 q 568 281 558 293 q 572 268 572 276 q 510 166 572 233 q 396 79 449 99 q 306 63 350 63 q 141 140 207 63 q 75 338 75 218 q 85 425 75 382 q 155 583 104 513 q 274 689 206 654 z "},"A":{"ha":685,"x_min":75,"x_max":607,"o":"m 357 661 q 304 807 310 799 q 294 821 297 821 q 275 753 289 821 q 243 603 272 735 q 224 497 224 511 q 225 496 224 496 q 300 510 236 496 q 385 532 364 524 q 390 543 390 533 q 357 661 390 563 m 265 1007 q 283 1018 276 1018 q 340 938 300 1018 q 401 800 375 868 q 479 572 426 732 q 572 307 539 388 q 607 179 607 215 q 572 139 607 139 q 543 153 554 139 q 451 365 508 193 q 418 463 424 453 q 413 464 417 464 q 351 453 397 464 q 269 432 304 442 q 228 419 235 422 q 203 390 208 414 q 171 256 190 326 q 143 169 151 185 q 107 146 128 146 q 85 156 94 146 q 75 210 75 165 q 83 279 75 247 q 118 451 85 289 q 238 947 185 779 q 265 1007 257 1000 z "},"B":{"ha":674,"x_min":74,"x_max":600,"o":"m 444 475 q 376 490 414 490 q 286 475 339 490 q 213 457 229 457 l 210 457 l 208 457 q 197 432 197 457 q 206 324 197 408 q 214 211 214 251 l 214 164 l 265 174 q 413 225 339 188 q 507 296 486 263 q 521 347 521 318 q 500 422 521 385 q 444 475 479 458 m 361 901 q 301 910 332 910 q 183 872 236 910 q 161 843 161 856 q 164 819 161 838 q 170 769 167 800 q 175 710 174 739 q 183 623 178 682 q 189 550 188 564 l 194 501 l 276 567 q 458 801 458 713 q 457 815 458 811 q 423 865 453 839 q 361 901 393 892 m 217 975 q 301 986 246 986 q 418 964 383 986 q 501 892 476 929 q 533 794 526 854 q 535 765 535 783 q 518 704 535 738 q 453 615 500 667 l 406 565 l 444 556 q 521 513 482 547 q 579 439 560 479 q 600 346 600 397 q 583 264 600 300 q 438 142 551 199 q 236 86 325 86 q 179 96 200 86 q 130 174 142 114 q 93 544 118 233 q 74 836 74 769 q 83 909 74 892 q 114 926 92 926 q 154 943 133 926 q 217 975 175 960 z "},"C":{"ha":654,"x_min":74,"x_max":578,"o":"m 315 951 q 386 964 332 961 q 431 960 419 964 q 461 940 443 957 q 515 872 493 913 q 536 799 536 831 q 521 765 536 772 q 508 761 514 761 q 447 825 490 761 q 381 881 411 881 q 349 872 367 881 q 288 819 324 861 q 231 732 253 778 q 158 403 158 592 q 193 238 158 286 q 308 179 235 179 q 325 181 319 179 q 489 267 394 189 q 546 300 528 300 q 569 286 557 300 q 578 264 578 275 q 453 132 578 207 q 306 89 381 89 q 146 151 213 89 q 74 403 74 221 q 75 451 74 435 q 150 765 86 632 q 315 951 214 897 z "},"D":{"ha":750,"x_min":72,"x_max":675,"o":"m 358 858 q 249 871 313 871 q 150 854 167 871 q 149 843 149 853 q 154 758 149 831 q 168 579 165 619 q 196 182 188 190 q 204 179 199 179 q 313 231 233 179 q 444 336 392 282 q 528 433 490 382 q 578 515 567 485 q 588 583 585 533 q 544 704 588 638 q 431 826 501 771 q 358 858 410 843 m 189 960 q 263 971 222 967 l 267 971 q 358 958 300 971 q 447 928 415 944 q 573 822 507 899 q 663 676 639 746 q 675 585 675 639 q 663 494 675 531 q 561 346 643 442 q 408 196 479 250 q 208 89 324 133 q 165 79 179 79 q 114 122 136 79 q 98 177 101 147 q 92 317 94 207 q 78 675 85 542 q 72 860 72 774 q 74 897 72 893 q 189 960 83 936 z "},"E":{"ha":672,"x_min":72,"x_max":594,"o":"m 431 1018 q 501 1025 482 1025 q 544 1014 531 1025 q 554 994 554 1004 q 365 918 554 956 q 163 861 176 878 q 152 772 157 854 q 147 628 147 690 q 150 576 147 588 q 160 571 153 571 q 238 592 169 571 q 357 617 317 617 q 400 589 400 617 q 399 576 400 581 q 371 548 394 558 q 260 515 347 538 l 160 489 l 157 374 l 157 322 q 160 217 157 250 l 164 175 l 224 179 q 392 204 261 182 q 551 229 524 226 q 582 232 579 232 q 594 224 594 232 q 594 220 594 222 q 593 215 593 218 q 564 183 590 196 q 370 137 543 174 q 169 100 197 100 q 129 115 150 100 q 78 421 93 143 q 72 597 72 506 q 124 911 72 857 q 244 972 150 939 q 431 1018 339 1004 z "},"F":{"ha":618,"x_min":76,"x_max":539,"o":"m 428 1022 q 489 1033 469 1033 q 522 1022 507 1033 q 539 992 539 1011 q 521 961 539 974 q 240 888 496 944 q 154 865 161 869 q 153 854 153 864 q 164 736 153 829 l 179 613 l 261 638 q 426 669 364 669 q 500 626 500 669 q 488 592 500 604 q 293 535 450 558 q 199 517 207 522 q 196 500 196 515 q 214 338 196 469 q 239 113 239 163 q 213 64 239 64 l 203 64 q 156 158 176 67 q 111 485 136 250 q 83 726 110 493 q 76 849 76 776 q 82 915 76 908 q 165 956 93 931 q 326 999 236 981 q 428 1022 385 1011 z "},"G":{"ha":775,"x_min":75,"x_max":704,"o":"m 293 1008 q 371 1026 328 1026 q 528 965 458 1026 q 581 893 560 938 q 601 813 601 849 q 590 776 601 788 q 569 765 579 765 q 543 788 556 765 q 429 914 489 886 q 371 931 396 931 q 308 897 339 931 q 223 721 260 843 q 183 490 186 599 l 183 461 q 204 361 183 404 q 276 281 226 314 q 369 247 325 247 q 432 268 396 247 q 488 317 468 289 q 513 370 501 335 q 525 425 525 406 q 521 435 525 433 q 501 432 517 436 q 446 425 474 425 q 386 435 408 425 q 364 472 364 446 q 372 492 364 486 q 488 541 388 504 q 617 582 588 578 q 643 585 639 585 q 681 564 660 585 l 704 540 l 699 385 q 671 32 690 72 q 633 11 661 11 q 591 40 603 11 q 579 140 579 68 q 575 218 579 214 l 574 218 q 536 193 564 218 q 375 132 467 132 q 292 149 331 132 q 199 202 246 168 q 133 267 153 236 q 87 363 99 321 q 75 482 75 406 q 121 744 76 610 q 198 912 151 842 q 293 1008 244 982 z "},"H":{"ha":1003,"x_min":78,"x_max":925,"o":"m 225 1017 q 247 1026 233 1026 q 278 1011 269 1026 q 293 867 286 996 q 326 535 313 549 l 329 535 q 485 567 360 535 l 636 606 l 635 640 q 633 676 635 649 q 631 749 632 704 q 628 829 629 794 q 625 940 625 935 q 635 997 625 986 q 663 1011 649 1011 q 710 929 697 1011 q 727 784 715 899 q 740 643 739 669 q 757 633 740 633 q 832 649 775 633 q 892 660 874 660 q 925 622 925 660 q 912 590 925 599 q 821 547 899 581 l 751 518 l 750 467 l 750 447 q 756 293 750 401 q 760 185 760 229 q 758 160 760 161 q 729 142 751 142 q 717 143 721 142 q 692 186 701 149 q 671 339 683 224 q 651 485 656 481 l 649 485 q 588 475 626 485 q 333 414 338 418 q 360 133 326 407 q 367 47 367 68 q 360 10 367 21 q 335 -4 353 0 q 324 -6 331 -6 q 269 81 282 -6 q 246 224 265 107 q 228 349 244 231 l 222 385 l 151 383 l 121 383 q 85 386 93 383 q 78 400 78 389 q 163 467 78 432 l 217 489 l 213 536 q 194 839 194 721 q 196 883 194 872 q 225 1017 206 992 z "},"I":{"ha":511,"x_min":79,"x_max":432,"o":"m 181 1003 q 282 1008 210 1008 l 344 1007 l 344 983 q 338 962 344 967 q 299 949 332 957 l 251 936 l 254 871 q 277 558 256 821 q 300 283 299 294 q 302 247 301 258 q 306 224 303 235 q 312 211 308 214 q 322 208 315 208 q 361 217 325 208 q 393 221 378 221 q 432 194 432 221 q 354 147 432 175 q 340 142 344 143 q 136 88 192 88 q 125 89 128 88 q 111 114 110 94 q 125 136 114 128 q 175 158 136 144 l 238 182 l 228 224 q 186 533 210 304 q 163 860 163 761 l 163 921 l 133 915 q 126 915 131 915 q 119 914 122 914 q 79 943 79 914 q 181 1003 79 988 z "},"J":{"ha":625,"x_min":75,"x_max":543,"o":"m 344 999 q 500 1018 457 1018 q 542 1006 538 1018 q 543 996 543 1001 q 486 958 543 971 q 469 956 481 957 q 407 931 410 939 q 410 913 407 929 q 417 874 411 907 q 433 790 424 842 q 451 693 443 739 q 504 329 504 422 q 478 203 504 256 q 290 100 428 100 q 277 101 286 100 q 264 101 268 101 q 131 156 176 108 q 76 301 86 204 q 75 336 75 314 q 83 381 75 368 q 113 393 92 393 q 143 378 135 393 q 158 314 151 364 q 196 219 168 247 q 281 190 224 190 l 289 190 q 379 233 351 192 q 400 360 400 264 q 375 588 400 469 q 347 763 363 650 q 331 903 331 876 q 326 919 331 917 q 293 922 321 921 q 233 926 246 924 q 218 938 221 928 q 226 964 213 947 q 344 999 239 979 z "},"K":{"ha":683,"x_min":74,"x_max":610,"o":"m 74 897 q 88 988 74 972 q 117 1003 101 1003 q 158 954 150 1003 q 190 678 183 804 q 197 606 193 625 q 210 588 200 588 q 254 613 218 588 q 378 744 325 664 q 419 833 397 774 q 440 919 440 893 q 458 966 440 939 q 490 994 475 993 l 496 994 q 533 914 533 994 q 529 857 533 889 q 439 628 513 726 l 408 588 l 432 575 q 547 438 492 544 q 608 233 601 331 q 610 206 610 222 q 602 165 610 176 q 575 154 594 154 q 524 183 543 154 q 471 322 506 213 q 407 456 442 415 q 322 497 372 497 q 231 475 283 497 q 204 459 208 465 q 200 426 200 453 q 213 267 200 419 q 224 129 224 151 q 208 85 224 100 q 178 69 193 69 q 143 88 161 69 q 140 90 142 89 q 122 149 128 103 q 99 450 117 194 q 97 470 97 463 q 96 489 97 478 q 94 510 94 500 q 74 897 74 814 z "},"L":{"ha":557,"x_min":72,"x_max":481,"o":"m 90 988 q 107 992 100 992 q 129 974 125 992 q 200 406 151 896 q 215 249 210 283 l 219 218 l 303 256 q 443 300 403 300 q 471 289 463 300 q 481 265 481 274 q 462 238 481 254 q 421 215 443 222 q 296 164 394 208 q 149 119 197 119 q 117 129 126 119 q 97 346 107 139 q 81 699 93 450 q 72 913 72 860 q 75 972 72 960 q 90 988 78 983 z "},"M":{"ha":969,"x_min":75,"x_max":893,"o":"m 688 1001 q 738 1011 719 1011 q 822 971 782 1011 q 893 754 893 900 q 865 540 893 657 q 764 207 835 410 q 668 -22 693 4 q 629 -37 654 -37 q 599 -26 608 -37 q 592 3 592 -19 q 632 149 592 56 q 749 492 701 307 q 797 781 797 678 q 793 826 797 808 q 750 918 778 894 q 738 922 746 922 q 650 872 706 922 q 572 769 594 821 q 531 611 531 672 q 532 588 531 596 q 533 563 533 579 q 493 510 533 510 q 452 535 472 510 q 406 624 432 561 q 297 786 347 757 q 269 793 285 793 q 220 769 243 793 q 185 703 197 744 q 175 618 175 669 q 176 556 175 581 q 256 221 183 385 q 289 121 289 146 q 263 94 289 97 l 257 94 q 210 124 238 94 q 114 320 153 188 q 75 582 75 453 q 76 599 75 588 q 76 617 76 611 q 131 806 83 733 q 257 892 178 879 q 274 893 263 893 q 367 862 318 893 q 446 782 415 831 l 463 754 l 483 800 q 576 925 515 865 q 688 1001 636 985 z "},"N":{"ha":767,"x_min":72,"x_max":694,"o":"m 607 994 q 632 1003 619 1003 q 666 987 650 1003 q 688 946 682 971 q 694 763 694 918 q 647 297 694 499 q 622 210 633 239 q 588 160 610 182 q 531 138 565 138 q 474 154 500 138 q 349 327 424 186 q 232 617 275 468 q 204 682 211 682 q 197 663 200 682 q 167 401 182 563 q 122 176 149 193 q 106 171 113 171 q 81 189 93 171 q 72 240 72 201 q 106 575 72 310 q 171 982 151 944 q 199 996 176 996 q 222 986 214 996 q 235 946 229 976 q 295 740 240 911 q 378 497 350 568 q 496 274 440 335 l 522 244 l 536 297 q 592 788 588 501 q 597 953 594 919 q 607 994 599 988 z "},"O":{"ha":807,"x_min":75,"x_max":733,"o":"m 465 894 q 407 908 436 908 q 290 846 349 908 q 228 747 260 813 q 188 636 196 682 q 182 563 182 607 q 197 421 182 493 q 235 315 213 349 q 287 277 249 297 q 365 247 325 257 q 417 242 389 242 q 548 294 492 242 q 629 440 604 346 q 639 529 639 474 q 596 763 639 669 q 539 838 581 796 q 465 894 497 879 m 351 989 q 394 994 367 994 q 508 969 461 994 q 601 901 553 947 q 674 811 650 854 q 720 688 707 749 q 733 532 733 626 q 728 428 732 454 q 711 363 725 403 q 597 190 671 257 q 399 107 503 107 q 192 203 286 107 q 75 500 75 324 q 76 540 75 526 q 92 659 82 619 q 135 768 101 699 q 351 989 219 947 z "},"P":{"ha":694,"x_min":75,"x_max":618,"o":"m 367 907 q 232 926 307 926 l 201 926 q 167 922 175 926 q 160 900 160 918 q 171 814 160 883 q 190 657 188 679 q 201 574 197 578 l 204 574 q 342 638 225 574 q 489 731 460 703 q 515 786 515 757 q 507 818 515 803 q 454 866 496 840 q 367 907 413 892 m 164 994 q 246 1000 219 1000 q 563 890 444 1000 q 618 778 618 839 q 542 649 618 706 q 401 569 492 611 q 239 510 311 528 l 206 501 l 211 324 q 214 210 214 226 q 207 138 214 151 q 175 124 200 124 q 146 135 154 124 q 128 225 135 146 q 75 911 75 815 q 90 974 75 960 q 164 994 104 988 z "},"Q":{"ha":779,"x_min":75,"x_max":706,"o":"m 463 913 q 428 930 443 926 q 379 933 414 933 q 329 930 340 933 q 300 908 318 926 q 206 727 247 853 q 165 497 165 601 q 196 351 165 424 q 265 258 226 278 q 350 240 301 240 q 415 250 386 240 q 464 276 464 264 q 443 313 464 286 q 419 367 419 340 q 456 401 419 401 q 507 375 476 401 l 542 349 l 557 385 q 601 622 601 481 q 597 686 601 657 q 463 913 576 829 m 313 1025 q 389 1042 346 1042 q 425 1035 411 1042 q 482 1008 440 1025 q 613 900 550 979 q 694 743 676 821 q 706 631 706 690 q 638 315 706 443 l 611 263 l 639 225 q 665 164 665 190 q 651 139 665 147 q 631 132 638 132 q 583 165 617 132 l 546 200 l 522 185 q 444 153 494 167 q 354 139 393 139 q 83 408 139 139 q 75 497 75 450 q 147 816 75 653 q 313 1025 219 979 z "},"R":{"ha":825,"x_min":78,"x_max":750,"o":"m 433 865 q 300 885 393 883 l 260 885 q 185 882 204 885 q 165 867 165 881 q 168 843 165 865 q 198 682 175 792 q 225 568 221 572 l 226 568 q 268 588 242 568 q 369 660 361 654 q 460 734 424 697 q 496 789 496 771 q 433 865 496 838 m 167 954 q 303 963 225 963 q 471 946 428 963 q 564 883 525 928 q 604 794 603 839 q 581 728 604 769 q 528 661 557 688 l 489 628 l 518 618 q 615 549 569 600 q 689 426 661 497 q 750 183 750 263 q 739 139 750 153 q 708 124 726 124 q 678 142 692 124 q 654 222 663 168 q 499 533 606 483 q 429 547 472 547 q 297 519 369 547 q 284 515 293 518 q 272 510 275 511 q 263 506 269 508 q 256 501 257 503 q 251 495 254 499 q 246 488 247 492 q 244 479 244 485 q 243 467 243 474 q 265 314 243 444 q 290 128 290 161 l 292 81 l 265 81 q 240 88 247 81 q 217 124 232 94 q 146 421 185 192 q 78 874 81 794 l 78 888 q 94 935 78 922 q 167 954 111 947 z "},"S":{"ha":732,"x_min":76,"x_max":656,"o":"m 263 943 q 374 975 315 975 q 464 954 424 975 q 535 894 504 933 q 565 824 565 854 q 560 803 565 810 q 528 789 553 792 q 522 788 525 789 q 518 788 519 788 q 483 817 503 788 q 432 872 463 851 q 376 894 400 894 q 367 894 374 894 q 356 893 360 893 q 235 811 279 888 q 214 725 214 775 q 240 635 214 665 q 360 558 265 606 q 603 397 539 467 q 656 289 656 340 q 613 200 656 243 q 396 125 538 125 q 289 136 338 125 q 135 210 190 156 q 76 322 76 267 q 108 379 76 379 q 153 339 135 379 q 258 239 185 276 q 413 206 321 206 q 443 208 426 206 q 560 290 560 233 q 496 383 560 331 q 343 474 457 415 q 213 550 251 518 q 151 628 174 582 q 132 725 132 669 q 144 806 132 769 q 192 880 156 836 q 263 943 229 924 z "},"T":{"ha":601,"x_min":79,"x_max":522,"o":"m 438 990 q 474 994 458 994 q 514 979 503 994 q 522 957 522 967 q 389 890 522 924 l 332 876 l 335 517 q 336 226 336 403 q 335 135 336 140 q 326 115 332 119 q 306 110 321 111 l 299 110 q 269 132 278 110 q 250 233 261 154 q 238 593 238 325 q 228 853 236 853 l 226 853 q 138 843 203 843 q 90 849 96 843 q 79 869 79 857 q 97 899 79 885 q 203 938 115 911 q 353 975 290 964 q 438 990 421 985 z "},"U":{"ha":769,"x_min":74,"x_max":697,"o":"m 615 1071 q 633 1081 624 1081 q 681 1032 661 1081 q 697 796 697 990 q 671 419 697 522 q 612 278 651 344 q 510 167 572 213 q 378 119 447 121 q 272 144 324 119 q 140 271 182 188 q 81 521 97 354 q 74 713 74 592 q 99 1001 74 969 q 125 1010 107 1010 q 156 997 150 1010 q 163 760 160 983 q 170 510 164 586 q 196 371 176 435 q 262 265 217 304 q 358 225 307 225 q 429 246 396 225 q 564 460 532 313 q 604 911 594 601 q 615 1071 610 1063 z "},"V":{"ha":760,"x_min":78,"x_max":681,"o":"m 617 1081 q 644 1094 629 1094 q 670 1083 660 1094 q 681 1050 681 1071 q 517 357 681 953 q 376 139 457 139 q 306 204 339 139 q 197 497 274 269 q 78 918 78 851 q 97 949 78 949 q 110 946 99 949 q 293 525 140 938 q 356 371 336 411 l 378 321 l 386 347 q 535 843 492 733 q 585 999 571 946 q 617 1081 601 1063 z "},"W":{"ha":1056,"x_min":74,"x_max":982,"o":"m 756 956 q 767 989 756 976 q 794 1001 778 1001 q 831 988 813 1001 q 870 931 853 969 q 928 772 888 893 q 969 640 960 676 q 981 550 978 603 q 981 531 981 543 q 982 514 982 519 q 942 310 982 421 q 891 219 919 250 q 814 169 863 189 q 746 156 778 156 q 735 156 743 156 q 722 157 726 157 q 640 181 676 160 q 560 251 604 201 l 514 301 l 500 281 q 395 172 456 213 q 279 131 335 131 q 165 175 221 131 q 90 279 110 219 q 74 443 74 333 q 82 610 74 519 q 136 883 104 824 q 171 917 154 917 q 203 899 185 917 q 225 844 225 876 q 211 724 225 825 q 183 418 183 539 q 224 263 183 283 q 261 253 242 253 q 415 399 342 253 q 469 481 438 446 q 517 510 497 510 q 522 509 518 510 q 529 508 526 508 q 563 497 553 506 q 601 443 574 488 q 672 347 640 383 q 704 318 694 324 q 738 313 714 313 q 806 336 769 313 q 856 401 843 363 q 869 525 868 440 l 869 542 q 858 653 869 607 q 810 788 846 700 q 763 906 771 883 q 756 956 756 929 z "},"X":{"ha":735,"x_min":76,"x_max":657,"o":"m 578 972 q 604 979 592 979 q 641 965 625 979 q 657 931 657 951 q 601 813 657 913 q 483 622 544 714 q 456 575 456 582 q 501 486 456 569 q 611 243 611 290 q 599 213 611 225 q 561 193 579 193 q 502 235 535 193 q 418 372 469 276 q 372 450 376 450 q 289 349 363 450 q 182 215 218 253 q 122 178 146 178 q 93 193 108 178 q 76 232 76 210 q 196 457 76 283 q 285 589 275 572 q 290 604 290 600 q 256 694 290 619 q 176 919 176 867 q 186 953 176 942 q 215 963 194 965 q 308 840 242 960 q 379 719 375 719 q 438 785 386 719 q 525 906 489 851 q 578 972 568 967 z "},"Y":{"ha":638,"x_min":78,"x_max":560,"o":"m 514 1006 q 543 1011 525 1017 q 557 999 554 1008 q 560 958 560 990 l 560 925 q 535 767 558 847 q 457 579 493 632 q 438 469 442 557 q 419 258 432 369 q 397 129 406 147 q 344 89 375 89 q 331 92 339 89 q 301 115 310 100 q 294 261 294 129 l 294 303 q 289 497 294 481 q 254 554 283 522 q 140 748 203 614 q 78 933 78 882 q 89 967 78 953 q 117 981 100 981 q 150 951 132 981 q 219 821 168 922 q 339 633 314 633 q 419 803 354 633 q 514 1006 489 981 z "},"Z":{"ha":796,"x_min":79,"x_max":718,"o":"m 475 1006 q 594 1033 556 1028 l 597 1033 q 628 1022 614 1033 q 642 996 642 1010 q 593 877 642 985 q 501 686 544 769 q 464 607 464 614 q 489 606 464 600 q 508 607 493 607 q 581 600 539 607 q 629 586 622 593 q 633 576 633 582 q 585 539 633 558 q 465 508 538 519 q 411 493 421 501 q 328 363 393 478 q 310 329 317 340 q 251 213 251 229 q 263 210 251 210 q 319 215 288 210 q 528 233 433 229 q 644 239 607 239 q 694 226 675 239 q 718 183 718 210 q 703 150 718 163 q 662 137 692 140 q 526 131 632 133 q 263 115 371 125 q 179 110 190 110 q 125 143 125 110 q 135 196 125 154 q 233 401 147 249 q 271 474 271 469 q 251 478 271 478 q 219 492 236 478 q 201 517 201 506 q 226 547 201 531 q 278 567 250 563 q 332 585 317 571 q 431 760 349 601 q 503 911 503 899 q 497 917 503 917 l 494 917 q 490 915 492 915 q 379 890 428 901 q 197 868 286 868 q 104 885 128 868 q 79 921 79 901 q 88 935 79 931 q 143 942 97 942 q 475 1006 232 942 z "},"^":{"ha":642,"x_min":75,"x_max":567,"o":"m 296 903 q 324 913 313 913 q 378 872 347 913 q 483 713 410 832 q 567 546 567 578 q 547 518 567 526 q 511 522 528 510 q 365 722 478 546 l 328 783 l 286 719 q 188 592 243 656 q 122 528 133 528 q 92 541 108 528 q 75 565 75 554 q 171 722 76 601 q 260 851 233 799 q 296 903 281 894 z "},"a":{"ha":528,"x_min":74,"x_max":457,"o":"m 386 403 q 383 417 386 414 q 361 419 379 419 l 335 419 q 193 385 231 417 q 166 349 178 372 q 154 313 154 326 q 156 306 154 307 q 185 297 160 297 q 294 325 239 297 q 386 403 386 372 m 189 628 q 289 643 222 640 q 345 640 333 643 q 378 614 357 636 q 457 286 450 542 l 457 254 q 449 194 457 203 q 429 183 439 183 q 401 243 401 183 q 390 274 401 274 q 361 258 383 274 q 206 206 288 206 q 115 232 150 206 q 79 304 79 258 q 147 442 81 385 q 304 500 213 500 l 307 500 q 361 513 361 500 q 339 547 361 524 q 290 574 314 574 q 147 528 221 574 q 92 506 113 506 q 74 522 74 506 q 82 550 74 533 q 189 628 110 600 z "},"b":{"ha":500,"x_min":72,"x_max":426,"o":"m 332 532 q 324 551 329 547 q 299 557 319 556 l 294 557 q 222 536 268 557 q 160 496 172 513 q 149 424 149 479 l 149 401 q 160 297 151 317 l 169 274 l 199 301 q 276 397 233 336 q 326 481 319 457 q 332 525 332 508 l 332 532 m 78 929 q 110 921 94 946 q 124 806 115 910 q 133 642 133 703 q 138 588 133 592 q 174 604 143 582 q 307 654 242 654 q 411 600 375 654 q 426 539 426 578 q 356 344 426 453 q 194 189 286 235 q 133 168 153 168 q 113 176 119 168 q 79 417 96 194 q 72 743 72 525 q 78 929 72 924 z "},"c":{"ha":521,"x_min":75,"x_max":450,"o":"m 229 629 q 310 644 267 644 q 403 617 365 644 q 440 544 440 589 q 413 500 440 500 q 365 531 392 500 q 322 565 343 560 q 304 568 311 568 q 203 517 254 568 q 151 404 151 465 q 214 299 151 336 q 294 274 258 274 q 363 290 325 274 q 414 308 400 308 q 429 304 421 308 q 450 276 450 296 q 385 206 450 239 q 283 181 336 181 q 165 221 217 181 q 109 288 136 243 q 76 369 82 333 q 75 394 75 378 q 120 535 75 465 q 229 629 165 604 z "},"d":{"ha":533,"x_min":75,"x_max":464,"o":"m 321 521 q 257 531 292 531 q 213 524 226 531 q 176 493 196 518 q 149 443 157 468 q 144 415 144 428 q 182 351 144 371 q 235 340 204 340 q 335 368 296 340 q 361 392 357 383 q 368 431 365 401 l 368 443 q 321 521 368 500 m 393 868 q 417 882 410 882 q 437 834 431 882 q 451 622 443 786 q 464 296 464 363 q 454 226 464 232 q 429 218 442 218 q 397 233 411 218 q 379 275 383 249 q 372 303 374 303 q 349 288 369 303 q 290 260 328 272 q 229 249 253 249 q 160 272 200 249 q 100 322 119 294 q 75 400 75 358 q 133 539 75 467 q 265 600 183 600 q 331 589 303 600 l 363 578 l 363 682 q 393 868 364 844 z "},"e":{"ha":533,"x_min":74,"x_max":460,"o":"m 292 560 q 283 583 292 575 q 271 592 275 592 q 236 578 264 592 q 166 515 199 561 q 132 431 133 468 q 143 411 132 411 q 199 439 157 411 q 266 501 240 467 q 292 560 292 535 m 239 639 q 278 644 257 644 q 358 596 336 644 q 368 556 368 575 q 353 497 368 536 q 331 455 342 469 q 290 419 319 440 q 201 364 250 389 q 181 354 192 360 q 163 346 169 349 l 156 343 q 154 340 154 343 q 168 309 154 332 q 194 275 182 286 q 256 257 218 257 q 393 344 335 257 q 440 392 424 392 l 442 392 q 460 361 460 390 q 442 297 460 333 q 397 235 425 260 q 260 181 336 181 q 167 206 208 181 q 94 303 113 238 q 78 361 92 313 q 74 390 74 372 q 100 511 74 449 q 158 590 119 556 q 239 639 196 625 z "},"f":{"ha":533,"x_min":76,"x_max":454,"o":"m 324 897 q 347 900 332 900 q 433 822 399 900 q 454 743 454 774 q 440 693 454 715 q 408 668 424 668 q 379 724 379 668 q 368 791 379 758 q 340 824 357 824 q 322 814 332 824 q 289 689 289 776 q 296 597 289 639 q 314 515 307 521 q 325 513 318 513 q 332 513 326 513 q 342 514 338 514 l 351 514 q 393 503 376 514 q 410 476 410 492 q 397 454 410 464 q 350 439 385 444 l 315 436 l 303 381 q 211 165 274 264 q 143 104 171 104 q 117 117 129 104 q 108 135 108 125 q 140 200 108 153 q 201 371 193 281 l 207 424 l 153 424 q 93 431 110 424 q 76 456 76 438 q 78 468 76 464 q 97 499 82 490 q 157 513 111 507 l 204 518 l 204 614 q 244 824 204 756 q 324 897 283 888 z "},"g":{"ha":596,"x_min":75,"x_max":518,"o":"m 358 154 q 360 182 360 165 q 356 203 360 203 q 293 160 339 203 q 219 78 247 118 q 200 28 200 50 q 233 -1 200 -1 q 283 13 256 -1 q 334 65 314 28 q 358 154 354 103 m 338 538 q 333 558 338 554 q 310 561 329 561 l 300 561 q 197 514 240 561 q 154 401 154 467 q 182 342 154 342 q 264 401 208 342 q 338 538 338 479 m 221 619 q 286 631 254 631 q 376 610 335 631 q 419 569 418 586 q 421 560 421 563 q 418 556 421 557 q 411 557 415 556 q 406 558 408 558 q 400 546 400 558 q 418 413 400 529 q 436 285 436 304 q 471 275 436 281 q 513 260 506 269 q 518 247 518 251 q 506 227 518 236 q 478 218 494 218 q 461 221 472 218 q 456 222 458 222 q 442 164 444 222 q 407 27 435 76 q 319 -50 379 -22 q 239 -71 275 -71 q 156 -29 189 -71 q 139 29 139 -8 q 160 113 139 71 q 231 203 181 154 q 317 268 281 253 q 351 294 351 282 q 350 306 351 301 q 344 342 344 331 q 342 347 344 347 q 308 319 335 347 q 185 257 247 257 q 88 321 121 257 q 75 400 75 344 q 89 489 75 460 q 144 570 108 535 q 221 619 179 606 z "},"h":{"ha":490,"x_min":75,"x_max":419,"o":"m 180 846 q 184 865 180 846 q 199 892 188 885 q 215 899 210 899 q 242 838 242 899 q 217 658 242 803 q 192 497 193 514 l 186 443 l 228 482 q 354 561 308 561 q 399 538 378 561 l 419 513 l 413 413 q 401 253 408 344 l 397 192 l 369 189 q 363 188 367 189 q 357 188 358 188 q 328 207 339 188 q 315 285 315 226 l 315 314 q 321 435 318 417 q 319 469 325 469 q 263 425 308 469 q 196 349 218 381 q 154 272 167 307 q 132 228 142 238 q 104 218 124 218 q 75 235 75 218 q 94 367 75 264 q 135 585 121 493 q 180 846 172 807 z "},"i":{"ha":249,"x_min":71,"x_max":176,"o":"m 94 857 q 132 874 111 874 q 163 862 150 874 q 176 831 176 850 q 158 795 176 815 q 125 775 139 775 q 92 788 104 775 q 79 819 79 801 q 94 857 79 842 m 78 501 q 82 559 78 501 q 93 632 86 618 q 129 644 100 646 l 157 642 l 157 569 q 150 354 157 486 q 131 199 143 211 q 94 193 117 186 q 76 209 79 199 q 71 276 74 219 l 71 303 q 78 501 71 383 z "},"j":{"ha":575,"x_min":79,"x_max":499,"o":"m 401 847 q 429 856 414 856 q 460 844 447 856 q 474 815 474 832 q 472 806 474 808 q 451 774 467 786 q 419 761 436 761 q 389 775 401 761 q 379 801 379 785 q 401 847 379 832 m 281 157 q 290 249 290 199 l 290 260 l 289 313 l 244 260 q 149 40 149 142 q 153 4 149 21 q 178 -25 161 -25 q 233 28 203 -25 q 281 157 264 81 m 365 667 q 401 690 383 690 l 406 690 q 426 672 426 689 q 399 597 426 657 q 364 489 369 538 l 358 446 l 408 476 q 482 508 460 508 q 499 490 499 508 q 433 428 499 474 l 367 381 l 365 271 q 343 94 364 165 q 311 3 325 35 q 263 -58 297 -22 q 208 -103 228 -94 q 179 -108 196 -108 q 124 -89 150 -108 q 88 -39 99 -69 q 79 25 79 -18 q 90 114 79 69 q 221 325 115 217 l 293 399 l 293 442 q 365 667 293 581 z "},"k":{"ha":494,"x_min":72,"x_max":417,"o":"m 154 854 q 182 881 165 881 q 199 875 192 881 q 210 800 210 868 q 188 547 210 699 q 172 415 172 449 q 174 410 172 410 q 248 479 183 410 q 333 582 313 549 q 369 622 358 622 q 391 612 381 622 q 401 589 401 601 q 400 582 401 585 q 368 517 392 556 q 319 451 344 478 l 285 414 l 353 304 q 417 182 417 200 q 415 174 417 176 q 383 151 408 153 q 378 151 382 151 q 374 150 375 150 q 356 157 363 150 q 333 189 349 164 q 271 294 293 254 q 232 361 233 361 q 214 352 229 361 q 183 333 199 343 l 168 324 q 150 246 160 321 q 131 168 140 186 q 101 150 122 150 q 78 159 85 150 q 72 193 72 168 q 79 271 72 213 q 103 485 86 322 q 154 854 136 818 z "},"l":{"ha":293,"x_min":74,"x_max":219,"o":"m 149 969 q 168 982 158 982 q 213 890 197 982 q 219 799 219 849 q 179 446 219 654 q 158 294 158 338 q 168 256 158 264 q 210 206 210 222 q 197 183 210 196 q 172 174 188 174 q 125 191 150 174 q 86 235 100 208 q 74 306 74 258 q 119 619 74 389 q 151 854 151 774 q 147 911 151 886 q 143 949 143 936 q 149 969 143 964 z "},"m":{"ha":699,"x_min":72,"x_max":628,"o":"m 458 653 q 515 665 481 665 q 581 647 557 665 q 628 540 628 613 q 610 414 628 500 q 595 345 606 393 q 582 285 585 297 q 539 217 569 217 q 510 233 525 217 q 500 267 500 243 q 526 410 500 304 q 546 535 546 488 l 549 581 l 524 583 l 515 583 q 460 550 497 583 q 394 461 411 503 q 371 321 378 419 q 351 246 365 254 q 322 256 338 238 q 307 369 307 274 q 304 458 307 435 q 289 506 301 481 q 218 571 258 571 q 178 546 197 571 q 150 385 150 507 q 156 311 150 339 q 169 219 169 238 q 163 199 169 206 q 132 188 151 188 q 99 213 111 188 q 72 371 72 269 q 73 390 72 376 q 74 411 74 404 q 85 512 76 479 q 119 582 94 544 q 225 654 167 654 q 338 563 292 654 l 356 528 l 367 551 q 410 611 383 581 q 458 653 438 642 z "},"n":{"ha":463,"x_min":74,"x_max":392,"o":"m 257 615 q 311 631 279 631 q 369 608 347 631 q 388 581 385 593 q 392 538 392 569 q 379 381 392 488 q 369 283 369 308 q 378 246 369 263 q 385 219 385 229 q 357 196 385 196 q 318 217 336 196 q 296 269 300 239 q 294 304 294 279 q 308 440 294 389 q 315 514 315 461 q 308 561 315 561 q 250 524 283 561 q 189 432 217 488 q 161 351 175 404 q 147 276 147 299 q 131 242 147 257 q 97 226 114 226 q 75 244 79 226 q 74 260 74 247 q 82 360 74 300 q 88 415 83 379 q 94 478 92 451 q 99 519 97 504 q 126 615 107 615 q 149 603 136 615 q 163 564 163 589 q 167 539 163 539 q 201 569 171 539 q 257 615 238 606 z "},"o":{"ha":518,"x_min":75,"x_max":446,"o":"m 356 422 q 251 546 356 546 q 215 542 225 546 q 194 524 206 539 q 157 415 157 469 q 214 321 157 344 q 261 311 238 311 q 329 342 303 311 q 356 422 356 372 m 174 597 q 211 626 200 621 q 256 631 222 631 q 425 528 372 631 q 446 435 446 486 q 417 316 446 372 q 340 236 388 260 q 279 219 307 219 q 208 233 251 219 q 128 282 158 250 q 75 415 75 339 q 76 435 75 428 q 110 517 82 468 q 174 597 139 565 z "},"p":{"ha":569,"x_min":79,"x_max":499,"o":"m 392 497 q 354 515 375 515 q 274 489 328 515 l 235 469 l 219 365 q 206 258 206 279 q 208 256 207 257 q 215 258 208 256 q 224 263 221 261 q 236 267 228 264 q 249 274 244 271 q 331 327 288 292 q 392 390 375 363 q 408 447 408 417 q 392 497 408 478 m 196 601 q 222 613 211 617 q 240 607 233 607 q 247 582 247 607 l 247 556 l 275 569 q 354 590 315 590 q 457 548 415 590 q 499 438 499 506 q 498 428 499 435 q 497 418 497 422 q 478 343 494 378 q 384 247 451 292 q 242 183 317 201 q 189 169 190 171 q 171 83 186 167 q 146 -19 158 14 q 121 -40 138 -40 q 92 -24 106 -40 q 79 18 79 -7 q 99 144 79 51 q 132 343 111 208 q 196 601 164 569 z "},"q":{"ha":449,"x_min":75,"x_max":375,"o":"m 296 158 q 267 192 271 192 q 243 118 258 192 q 233 28 233 71 q 268 -61 233 -61 q 296 -44 281 -61 q 326 51 326 -10 q 296 158 326 113 m 289 428 q 299 481 301 454 l 296 507 l 274 496 q 171 400 214 465 q 139 321 139 353 q 153 303 139 303 q 224 345 178 303 q 289 428 269 388 m 253 550 q 314 568 288 568 q 354 554 339 568 q 369 535 367 544 q 372 492 372 525 q 306 314 369 410 q 286 274 286 286 q 308 236 286 263 q 375 49 375 158 q 310 -106 375 -61 q 254 -124 283 -124 q 195 -97 219 -124 q 165 -24 171 -71 q 164 -3 164 -17 q 201 179 164 64 q 215 225 211 208 q 218 242 219 242 q 179 233 215 242 q 153 231 169 231 q 97 252 118 231 q 75 310 75 274 q 79 340 75 324 q 142 459 93 400 q 253 550 192 518 z "},"r":{"ha":446,"x_min":72,"x_max":371,"o":"m 235 558 q 188 585 208 585 l 165 585 l 164 488 l 161 392 l 186 411 q 257 507 247 458 q 258 519 258 511 q 235 558 258 535 m 144 642 q 193 653 165 653 q 284 619 242 653 q 338 536 326 586 q 339 521 339 532 q 296 410 339 456 l 274 388 l 304 353 q 351 276 332 322 q 371 196 371 229 q 358 163 371 171 q 349 160 356 160 q 285 244 325 160 q 244 314 256 306 q 194 326 235 324 l 156 329 l 151 303 q 143 231 150 299 q 103 161 136 161 q 92 164 100 161 q 72 221 72 172 q 86 413 72 274 q 109 592 100 556 q 144 642 118 628 z "},"s":{"ha":521,"x_min":78,"x_max":447,"o":"m 183 547 q 219 616 189 588 q 290 644 249 644 q 340 635 315 644 q 422 554 394 611 q 447 476 447 504 q 421 447 447 447 q 385 485 403 447 q 311 572 346 563 l 306 572 q 284 563 294 572 q 274 543 274 554 q 349 431 274 519 q 397 356 376 396 q 418 296 418 317 q 399 240 418 272 q 358 192 381 207 q 282 171 326 171 q 206 189 240 171 q 140 237 172 204 q 92 304 108 269 q 78 347 78 335 q 110 371 78 371 q 138 361 126 371 q 182 314 150 351 q 235 260 215 275 q 276 244 256 244 q 304 249 289 244 q 333 276 333 257 q 261 390 333 304 q 182 535 182 485 q 183 540 182 536 q 183 547 183 544 z "},"t":{"ha":419,"x_min":76,"x_max":342,"o":"m 215 949 q 235 958 224 958 q 260 938 251 958 q 263 893 263 926 q 247 668 263 757 l 243 640 l 285 635 q 342 600 342 629 q 340 588 342 592 q 311 559 336 572 q 260 546 286 546 q 235 542 236 546 q 214 382 232 538 q 191 220 200 261 q 165 169 182 179 q 136 179 151 161 q 122 239 122 197 q 142 413 122 285 q 160 539 160 521 q 125 549 160 543 q 87 560 97 551 q 76 589 76 569 q 88 614 76 606 q 133 628 100 622 l 172 635 l 181 751 q 215 949 193 922 z "},"u":{"ha":497,"x_min":74,"x_max":428,"o":"m 351 657 q 371 668 361 668 q 411 614 394 668 q 428 485 428 560 q 427 469 428 481 q 426 454 426 458 q 358 258 418 321 q 246 201 306 203 l 243 201 q 149 238 190 201 q 88 339 107 275 q 74 482 74 379 q 86 611 74 575 q 99 637 93 632 q 124 642 106 642 l 149 642 l 147 565 l 147 553 q 179 360 147 439 q 213 319 190 335 q 257 303 235 303 q 296 319 279 303 q 351 497 351 381 q 349 563 351 539 q 346 622 346 589 q 351 657 346 650 z "},"v":{"ha":535,"x_min":75,"x_max":458,"o":"m 93 669 q 118 674 114 675 q 133 667 122 674 q 186 560 142 660 q 246 415 231 461 q 261 386 253 386 q 290 442 268 386 q 394 663 374 639 q 426 675 406 675 q 458 656 458 675 q 418 531 458 646 q 342 311 379 425 q 279 181 300 181 q 246 206 264 181 q 196 297 228 232 q 113 495 150 394 q 75 629 76 596 l 75 640 q 93 669 75 664 z "},"w":{"ha":794,"x_min":75,"x_max":722,"o":"m 633 622 q 661 639 642 639 q 696 617 682 639 q 722 469 722 571 q 718 421 722 439 q 654 306 703 351 q 550 260 606 260 q 518 264 535 260 q 464 297 494 271 q 411 356 433 324 l 400 374 l 381 340 q 296 260 344 281 q 239 249 269 249 q 154 278 193 249 q 92 360 115 307 q 75 449 75 397 l 75 467 q 119 621 78 621 q 136 613 128 621 q 154 521 151 600 q 204 364 161 386 q 236 356 221 356 q 293 382 267 356 q 342 449 318 407 q 367 511 367 492 q 374 550 367 532 q 407 568 381 572 q 433 554 428 567 q 450 482 439 542 q 472 410 456 444 q 509 367 485 386 q 551 349 533 349 q 594 378 568 349 q 631 440 621 407 q 639 489 639 469 q 635 543 639 506 q 629 600 629 596 q 633 622 629 614 z "},"x":{"ha":521,"x_min":76,"x_max":446,"o":"m 132 614 q 151 624 142 624 q 257 524 183 624 l 283 485 l 349 546 q 422 607 413 607 q 446 576 446 607 q 432 535 446 558 q 375 468 424 522 l 328 415 l 340 392 q 388 318 356 363 q 419 250 419 271 q 396 228 419 231 l 390 228 q 369 238 379 228 q 328 285 360 247 q 303 315 317 299 q 283 340 290 331 q 274 351 275 350 l 272 351 q 197 296 263 351 q 117 233 125 233 q 90 242 103 233 q 76 261 76 251 q 147 346 76 272 q 211 425 211 410 q 210 428 211 426 q 121 588 121 553 q 132 614 121 603 z "},"y":{"ha":560,"x_min":75,"x_max":483,"o":"m 297 197 q 292 210 297 210 q 253 179 283 210 q 182 65 182 104 q 203 36 182 36 q 253 72 228 36 q 283 136 268 94 q 297 197 297 178 m 81 579 q 92 585 86 585 q 124 548 108 585 q 149 454 140 511 q 172 368 158 392 q 210 344 185 344 q 233 353 225 344 q 258 397 240 363 q 288 511 283 450 q 306 578 290 571 q 319 582 314 582 q 337 558 332 582 q 344 468 342 535 q 354 339 350 364 l 360 311 l 422 313 l 453 313 q 479 310 475 313 q 483 294 483 307 q 475 278 483 282 q 419 265 467 274 l 357 254 l 360 219 q 361 194 361 213 q 332 53 361 118 q 278 -12 314 13 q 206 -37 242 -37 q 179 -33 192 -37 q 115 53 115 -14 q 153 159 115 103 q 260 258 192 215 q 294 284 286 275 q 299 306 301 293 l 296 325 l 276 303 q 204 267 246 267 q 135 295 168 267 q 88 372 101 324 q 75 525 75 419 q 81 579 75 575 z "},"z":{"ha":638,"x_min":76,"x_max":565,"o":"m 325 644 q 421 674 408 674 q 439 664 429 674 q 447 636 447 656 q 400 522 447 589 l 374 485 l 419 485 q 476 467 476 485 q 474 457 476 463 q 400 439 468 446 q 340 428 354 433 q 314 411 325 424 q 258 333 258 343 q 281 325 258 325 q 367 299 296 325 q 457 275 426 275 q 490 276 476 275 q 526 279 521 279 q 556 269 550 279 q 551 243 565 257 q 442 219 528 219 q 351 231 392 219 q 236 246 297 246 q 131 228 169 246 q 99 215 108 215 q 88 219 92 215 q 76 236 76 228 q 119 295 76 244 q 197 382 161 346 q 236 425 236 421 q 194 435 236 429 q 136 457 136 442 q 221 478 136 478 q 273 481 261 478 q 299 499 285 485 q 336 547 314 514 q 358 585 358 579 q 356 586 357 586 q 292 572 340 586 q 188 556 225 556 q 139 563 156 556 q 117 588 115 572 q 129 602 119 599 q 179 610 139 606 q 325 644 244 617 z "}," ":{"ha":347,"x_min":0,"x_max":0,"o":""},"©":{"ha":769,"x_min":74,"x_max":696,"o":"m 458 707 q 376 726 415 726 q 326 721 363 726 q 169 574 203 701 q 157 458 157 531 q 165 369 157 407 q 213 267 181 303 q 318 207 246 232 q 388 190 367 190 q 419 194 399 190 q 564 288 497 211 q 622 447 622 351 q 578 599 622 526 q 458 707 535 671 m 304 786 q 382 797 346 797 q 588 707 492 797 q 653 625 631 665 q 688 524 675 585 q 696 443 696 482 q 588 204 696 304 q 492 136 533 154 q 392 117 450 118 l 375 117 q 271 140 331 117 q 152 222 193 174 q 89 358 111 269 q 74 472 74 422 q 118 638 74 564 q 199 735 157 703 q 304 786 240 768 m 319 579 q 369 590 340 590 q 451 542 438 590 q 452 538 451 540 q 453 533 453 535 q 445 513 453 521 q 426 504 438 504 q 417 506 419 504 q 378 515 397 515 q 338 497 354 515 q 313 436 313 469 q 321 406 313 418 q 364 382 336 382 q 417 390 381 382 q 467 399 454 399 q 482 394 475 399 q 493 371 493 386 q 476 329 493 351 q 435 297 460 307 q 374 286 406 286 q 301 304 328 286 q 239 413 249 339 q 238 432 238 419 q 261 519 238 476 q 319 579 285 563 z "},"´":{"ha":314,"x_min":75,"x_max":238,"o":"m 172 940 q 210 958 199 958 q 230 949 222 958 q 238 925 238 939 q 236 914 238 918 q 177 841 231 893 q 106 789 124 789 q 75 814 75 789 q 78 828 75 822 q 117 886 85 847 q 172 940 150 925 z "},"¹":{"ha":396,"x_min":75,"x_max":321,"o":"m 164 913 q 222 958 210 958 q 249 939 236 958 q 257 908 257 924 q 253 867 257 896 l 244 808 q 268 804 244 804 q 306 795 292 804 q 321 774 321 786 q 303 747 321 760 q 233 728 288 738 q 140 718 178 718 q 119 719 125 718 q 83 732 92 725 q 75 754 75 739 q 140 793 75 785 q 169 801 164 796 q 175 821 175 806 q 172 839 175 835 q 157 843 168 843 q 129 854 138 843 q 125 863 125 858 q 164 913 125 874 z "}}}
